<svg version="1" xmlns="http://www.w3.org/2000/svg" width="256" height="256" viewBox="0 0 192.000000 192.000000"><path d="M32.2 1.2c-2.2 1.1-3.8 5.1-3.6 9 .1 1.6-.9 1.8-7 1.9-3.9.1-8.1 0-9.2 0-1.2-.1-3.4.9-5 2.2l-2.9 2.5v83.6c0 45.9.3 84.9.7 86.5.6 2 1.7 3.2 4 4 4.2 1.5 171.1 1.6 173.8.1 4.5-2.4 4.4-1.3 4.5-89.4V17.7L185 15c-2.4-2.5-3.2-2.7-11.5-2.9-4.9-.1-9.1-.4-9.4-.7-.3-.2-.6-1.5-.8-2.7-.7-5.4-1.4-6.5-4.4-7.6-4.3-1.5-27.1-1.4-30.4.1-2.5 1.1-4.1 4.8-3.9 9.1.1 1.6-1.7 1.7-28.4 1.5l-28.5-.3-.3-2.5c-.8-5.7-1.5-6.8-4.5-7.9-4.1-1.4-27.7-1.3-30.7.1z"/></svg>