<?xml version="1.0" standalone="no"?>
<!DOCTYPE svg PUBLIC "-//W3C//DTD SVG 20010904//EN"
 "http://www.w3.org/TR/2001/REC-SVG-20010904/DTD/svg10.dtd">
<svg version="1.0" xmlns="http://www.w3.org/2000/svg"
 width="256.000000pt" height="256.000000pt" viewBox="0 0 256.000000 256.000000"
 preserveAspectRatio="xMidYMid meet">
<metadata>
Created by potrace 1.11, written by Peter Selinger 2001-2013
</metadata>
<g transform="translate(0.000000,256.000000) scale(0.100000,-0.100000)"
fill="#000000" stroke="none">
<path d="M450 2553 c-39 -16 -63 -52 -68 -101 l-4 -50 -127 -4 c-122 -3 -128
-4 -156 -31 l-30 -27 0 -1140 0 -1140 28 -27 27 -28 1160 0 1160 0 27 28 28
27 0 1140 0 1140 -28 27 c-27 27 -31 28 -156 31 l-128 4 -6 51 c-5 36 -14 59
-32 77 l-25 25 -200 0 -200 0 -25 -25 c-18 -19 -27 -41 -32 -78 l-6 -52 -377
0 -377 0 -6 52 c-5 37 -14 59 -32 78 -25 25 -27 25 -213 27 -103 1 -194 -1
-202 -4z"/>
</g>
</svg>
